<svg data-v-fde0c5aa="" xmlns="http://www.w3.org/2000/svg" viewBox="0 0 300 300" class="font"><!----><defs data-v-fde0c5aa=""><!----></defs><rect data-v-fde0c5aa="" fill="transparent" x="0" y="0" width="300px" height="300px" class="logo-background-square"></rect><defs data-v-fde0c5aa=""><linearGradient data-v-fde0c5aa="" gradientTransform="rotate(25)" id="b6e15635-d978-48b4-816a-a3b2bffd1769" x1="0%" y1="0%" x2="100%" y2="0%"><stop data-v-fde0c5aa="" offset="0%" stop-color="#920DE9" stop-opacity="1"></stop><stop data-v-fde0c5aa="" offset="100%" stop-color="#1536F1" stop-opacity="1"></stop></linearGradient></defs><g data-v-fde0c5aa="" id="8c423e73-b2d0-4f64-8eaa-a1bd43206d3c" fill="url(#b6e15635-d978-48b4-816a-a3b2bffd1769)" transform="matrix(1.3024688597733358,0,0,1.3024688597733358,39.86975311208185,139.1504348079914)"><path d="M7.13 13.51L6.19 10.86L2.44 10.86L1.50 13.51L0.10 13.51L3.61 3.71L5.01 3.71L8.53 13.51L7.13 13.51ZM2.86 9.66L5.77 9.66L4.31 5.57L2.86 9.66ZM12.63 13.65L12.63 13.65Q11.51 13.65 10.70 13.19L10.70 13.19L10.70 13.19Q9.90 12.73 9.49 11.92L9.49 11.92L9.49 11.92Q9.09 11.12 9.09 10.12L9.09 10.12L9.09 10.12Q9.09 8.50 10.00 7.50L10.00 7.50L10.00 7.50Q10.92 6.51 12.73 6.51L12.73 6.51L12.73 6.51Q13.79 6.51 14.60 6.92L14.60 6.92L14.41 8.02L14.41 8.02Q13.55 7.63 12.70 7.63L12.70 7.63L12.70 7.63Q11.58 7.63 10.98 8.27L10.98 8.27L10.98 8.27Q10.37 8.90 10.37 10.07L10.37 10.07L10.37 10.07Q10.37 11.23 10.96 11.89L10.96 11.89L10.96 11.89Q11.54 12.54 12.67 12.54L12.67 12.54L12.67 12.54Q13.58 12.54 14.42 12.12L14.42 12.12L14.59 13.13L14.59 13.13Q14.28 13.34 13.74 13.50L13.74 13.50L13.74 13.50Q13.20 13.65 12.63 13.65L12.63 13.65ZM18.98 13.65L18.98 13.65Q17.86 13.65 17.06 13.19L17.06 13.19L17.06 13.19Q16.25 12.73 15.85 11.92L15.85 11.92L15.85 11.92Q15.44 11.12 15.44 10.12L15.44 10.12L15.44 10.12Q15.44 8.50 16.36 7.50L16.36 7.50L16.36 7.50Q17.28 6.51 19.08 6.51L19.08 6.51L19.08 6.51Q20.15 6.51 20.96 6.92L20.96 6.92L20.76 8.02L20.76 8.02Q19.91 7.63 19.05 7.63L19.05 7.63L19.05 7.63Q17.93 7.63 17.33 8.27L17.33 8.27L17.33 8.27Q16.73 8.90 16.73 10.07L16.73 10.07L16.73 10.07Q16.73 11.23 17.31 11.89L17.31 11.89L17.31 11.89Q17.89 12.54 19.03 12.54L19.03 12.54L19.03 12.54Q19.94 12.54 20.78 12.12L20.78 12.12L20.94 13.13L20.94 13.13Q20.64 13.34 20.10 13.50L20.10 13.50L20.10 13.50Q19.56 13.65 18.98 13.65L18.98 13.65ZM25.48 13.65L25.48 13.65Q24.30 13.65 23.47 13.17L23.47 13.17L23.47 13.17Q22.64 12.68 22.20 11.86L22.20 11.86L22.20 11.86Q21.77 11.03 21.77 10.02L21.77 10.02L21.77 10.02Q21.77 9.06 22.17 8.25L22.17 8.25L22.17 8.25Q22.57 7.45 23.33 6.98L23.33 6.98L23.33 6.98Q24.09 6.51 25.13 6.51L25.13 6.51L25.13 6.51Q26.45 6.51 27.27 7.28L27.27 7.28L27.27 7.28Q28.08 8.05 28.08 9.41L28.08 9.41L28.08 9.41Q28.08 9.76 28.03 10.08L28.03 10.08L23.06 10.08L23.06 10.08Q23.18 11.41 23.87 11.97L23.87 11.97L23.87 11.97Q24.56 12.53 25.63 12.53L25.63 12.53L25.63 12.53Q26.71 12.53 27.61 12.12L27.61 12.12L27.78 13.12L27.78 13.12Q26.59 13.65 25.48 13.65L25.48 13.65ZM23.17 9.21L26.78 9.21L26.78 9.21Q26.78 8.47 26.36 8.05L26.36 8.05L26.36 8.05Q25.94 7.63 25.10 7.63L25.10 7.63L25.10 7.63Q24.29 7.63 23.83 8.03L23.83 8.03L23.83 8.03Q23.37 8.43 23.17 9.21L23.17 9.21ZM31.30 13.65L31.30 13.65Q30.49 13.65 29.88 13.46L29.88 13.46L29.88 13.46Q29.27 13.27 28.95 13.05L28.95 13.05L29.11 11.83L29.11 11.83Q29.39 12.08 29.97 12.31L29.97 12.31L29.97 12.31Q30.55 12.53 31.25 12.53L31.25 12.53L31.25 12.53Q31.91 12.53 32.26 12.31L32.26 12.31L32.26 12.31Q32.62 12.08 32.62 11.68L32.62 11.68L32.62 11.68Q32.62 11.20 32.23 10.96L32.23 10.96L32.23 10.96Q31.84 10.71 31.25 10.54L31.25 10.54L31.25 10.54Q30.60 10.37 30.16 10.18L30.16 10.18L30.16 10.18Q29.72 10.00 29.41 9.60L29.41 9.60L29.41 9.60Q29.09 9.21 29.09 8.57L29.09 8.57L29.09 8.57Q29.09 7.69 29.72 7.10L29.72 7.10L29.72 7.10Q30.35 6.51 31.67 6.51L31.67 6.51L31.67 6.51Q32.27 6.51 32.69 6.63L32.69 6.63L32.69 6.63Q33.11 6.75 33.53 6.96L33.53 6.96L33.38 8.11L33.38 8.11Q33.04 7.83 32.63 7.67L32.63 7.67L32.63 7.67Q32.23 7.50 31.70 7.50L31.70 7.50L31.70 7.50Q31.08 7.50 30.72 7.73L30.72 7.73L30.72 7.73Q30.37 7.97 30.37 8.43L30.37 8.43L30.37 8.43Q30.37 8.74 30.53 8.93L30.53 8.93L30.53 8.93Q30.70 9.11 31.01 9.24L31.01 9.24L31.01 9.24Q31.32 9.37 31.96 9.56L31.96 9.56L31.96 9.56Q32.76 9.80 33.34 10.23L33.34 10.23L33.34 10.23Q33.92 10.67 33.92 11.61L33.92 11.61L33.92 11.61Q33.92 12.45 33.33 13.05L33.33 13.05L33.33 13.05Q32.73 13.65 31.30 13.65L31.30 13.65ZM37.10 13.65L37.10 13.65Q36.29 13.65 35.68 13.46L35.68 13.46L35.68 13.46Q35.07 13.27 34.75 13.05L34.75 13.05L34.90 11.83L34.90 11.83Q35.18 12.08 35.76 12.31L35.76 12.31L35.76 12.31Q36.34 12.53 37.04 12.53L37.04 12.53L37.04 12.53Q37.70 12.53 38.06 12.31L38.06 12.31L38.06 12.31Q38.42 12.08 38.42 11.68L38.42 11.68L38.42 11.68Q38.42 11.20 38.02 10.96L38.02 10.96L38.02 10.96Q37.63 10.71 37.04 10.54L37.04 10.54L37.04 10.54Q36.40 10.37 35.96 10.18L35.96 10.18L35.96 10.18Q35.52 10.00 35.20 9.60L35.20 9.60L35.20 9.60Q34.89 9.21 34.89 8.57L34.89 8.57L34.89 8.57Q34.89 7.69 35.52 7.10L35.52 7.10L35.52 7.10Q36.15 6.51 37.46 6.51L37.46 6.51L37.46 6.51Q38.07 6.51 38.49 6.63L38.49 6.63L38.49 6.63Q38.91 6.75 39.33 6.96L39.33 6.96L39.17 8.11L39.17 8.11Q38.84 7.83 38.43 7.67L38.43 7.67L38.43 7.67Q38.02 7.50 37.49 7.50L37.49 7.50L37.49 7.50Q36.88 7.50 36.52 7.73L36.52 7.73L36.52 7.73Q36.16 7.97 36.16 8.43L36.16 8.43L36.16 8.43Q36.16 8.74 36.33 8.93L36.33 8.93L36.33 8.93Q36.50 9.11 36.81 9.24L36.81 9.24L36.81 9.24Q37.11 9.37 37.76 9.56L37.76 9.56L37.76 9.56Q38.56 9.80 39.14 10.23L39.14 10.23L39.14 10.23Q39.72 10.67 39.72 11.61L39.72 11.61L39.72 11.61Q39.72 12.45 39.12 13.05L39.12 13.05L39.12 13.05Q38.53 13.65 37.10 13.65L37.10 13.65ZM40.95 5.11L40.95 3.71L42.21 3.71L42.21 5.11L40.95 5.11ZM40.95 13.51L40.95 6.65L42.21 6.65L42.21 13.51L40.95 13.51ZM47.29 6.51L47.29 6.51Q48.22 6.51 48.92 7L48.92 7L48.92 7Q49.63 7.49 50.01 8.31L50.01 8.31L50.01 8.31Q50.39 9.13 50.39 10.08L50.39 10.08L50.39 10.08Q50.39 11.06 49.97 11.88L49.97 11.88L49.97 11.88Q49.56 12.70 48.85 13.17L48.85 13.17L48.85 13.17Q48.15 13.65 47.29 13.65L47.29 13.65L47.29 13.65Q46.66 13.65 46.07 13.39L46.07 13.39L46.07 13.39Q45.49 13.13 45.16 12.67L45.16 12.67L45.02 13.51L43.90 13.51L43.90 3.01L45.16 3.01L45.16 7.45L45.16 7.45Q45.54 7.01 46.11 6.76L46.11 6.76L46.11 6.76Q46.68 6.51 47.29 6.51L47.29 6.51ZM47.14 12.53L47.14 12.53Q48.02 12.53 48.56 11.82L48.56 11.82L48.56 11.82Q49.10 11.12 49.10 10.08L49.10 10.08L49.10 10.08Q49.10 9.02 48.56 8.32L48.56 8.32L48.56 8.32Q48.02 7.63 47.14 7.63L47.14 7.63L47.14 7.63Q46.27 7.63 45.68 8.27L45.68 8.27L45.68 8.27Q45.09 8.90 45.09 10.08L45.09 10.08L45.09 10.08Q45.09 11.30 45.67 11.91L45.67 11.91L45.67 11.91Q46.26 12.53 47.14 12.53L47.14 12.53ZM53.45 13.65L53.45 13.65Q52.53 13.65 52.10 13.17L52.10 13.17L52.10 13.17Q51.67 12.70 51.67 12.00L51.67 12.00L51.67 3.01L52.93 3.01L52.93 11.27L52.93 11.27Q52.93 11.89 53.01 12.17L53.01 12.17L53.01 12.17Q53.09 12.45 53.31 12.54L53.31 12.54L53.31 12.54Q53.54 12.64 54.04 12.64L54.04 12.64L53.86 13.65L53.45 13.65ZM58.28 13.65L58.28 13.65Q57.11 13.65 56.27 13.17L56.27 13.17L56.27 13.17Q55.44 12.68 55.01 11.86L55.01 11.86L55.01 11.86Q54.57 11.03 54.57 10.02L54.57 10.02L54.57 10.02Q54.57 9.06 54.97 8.25L54.97 8.25L54.97 8.25Q55.37 7.45 56.13 6.98L56.13 6.98L56.13 6.98Q56.90 6.51 57.93 6.51L57.93 6.51L57.93 6.51Q59.25 6.51 60.07 7.28L60.07 7.28L60.07 7.28Q60.89 8.05 60.89 9.41L60.89 9.41L60.89 9.41Q60.89 9.76 60.83 10.08L60.83 10.08L55.86 10.08L55.86 10.08Q55.99 11.41 56.67 11.97L56.67 11.97L56.67 11.97Q57.36 12.53 58.44 12.53L58.44 12.53L58.44 12.53Q59.51 12.53 60.41 12.12L60.41 12.12L60.58 13.12L60.58 13.12Q59.39 13.65 58.28 13.65L58.28 13.65ZM55.97 9.21L59.58 9.21L59.58 9.21Q59.58 8.47 59.16 8.05L59.16 8.05L59.16 8.05Q58.74 7.63 57.90 7.63L57.90 7.63L57.90 7.63Q57.09 7.63 56.63 8.03L56.63 8.03L56.63 8.03Q56.17 8.43 55.97 9.21L55.97 9.21ZM65.58 13.51L65.58 3.71L71.55 3.71L71.55 4.91L66.91 4.91L66.91 7.78L70.49 7.78L70.49 8.99L66.91 8.99L66.91 13.51L65.58 13.51ZM72.63 5.11L72.63 3.71L73.89 3.71L73.89 5.11L72.63 5.11ZM72.63 13.51L72.63 6.65L73.89 6.65L73.89 13.51L72.63 13.51ZM77.97 13.65L77.97 13.65Q77.06 13.65 76.62 13.17L76.62 13.17L76.62 13.17Q76.17 12.70 76.17 12.01L76.17 12.01L76.17 7.63L75.00 7.63L75.11 6.65L76.17 6.65L76.17 4.96L77.43 4.83L77.43 6.65L79.24 6.65L79.24 7.63L77.43 7.63L77.43 11.24L77.43 11.24Q77.43 11.96 77.52 12.22L77.52 12.22L77.52 12.22Q77.60 12.49 77.88 12.56L77.88 12.56L77.88 12.56Q78.15 12.64 78.88 12.64L78.88 12.64L79.20 12.64L79.10 13.65L77.97 13.65ZM83.71 6.51L83.71 6.51Q86.51 6.51 86.51 9.73L86.51 9.73L86.51 13.51L85.25 13.51L85.25 9.73L85.25 9.73Q85.25 8.62 84.83 8.13L84.83 8.13L84.83 8.13Q84.42 7.63 83.45 7.63L83.45 7.63L83.45 7.63Q82.84 7.63 82.33 7.85L82.33 7.85L82.33 7.85Q81.83 8.08 81.58 8.53L81.58 8.53L81.58 13.51L80.32 13.51L80.32 6.65L81.30 6.65L81.44 7.38L81.44 7.38Q81.98 6.89 82.54 6.70L82.54 6.70L82.54 6.70Q83.09 6.51 83.71 6.51L83.71 6.51ZM91.43 13.65L91.43 13.65Q90.26 13.65 89.43 13.17L89.43 13.17L89.43 13.17Q88.59 12.68 88.16 11.86L88.16 11.86L88.16 11.86Q87.72 11.03 87.72 10.02L87.72 10.02L87.72 10.02Q87.72 9.06 88.12 8.25L88.12 8.25L88.12 8.25Q88.52 7.45 89.29 6.98L89.29 6.98L89.29 6.98Q90.05 6.51 91.08 6.51L91.08 6.51L91.08 6.51Q92.40 6.51 93.22 7.28L93.22 7.28L93.22 7.28Q94.04 8.05 94.04 9.41L94.04 9.41L94.04 9.41Q94.04 9.76 93.98 10.08L93.98 10.08L89.01 10.08L89.01 10.08Q89.14 11.41 89.82 11.97L89.82 11.97L89.82 11.97Q90.51 12.53 91.59 12.53L91.59 12.53L91.59 12.53Q92.67 12.53 93.56 12.12L93.56 12.12L93.73 13.12L93.73 13.12Q92.54 13.65 91.43 13.65L91.43 13.65ZM89.12 9.21L92.74 9.21L92.74 9.21Q92.74 8.47 92.32 8.05L92.32 8.05L92.32 8.05Q91.90 7.63 91.06 7.63L91.06 7.63L91.06 7.63Q90.24 7.63 89.78 8.03L89.78 8.03L89.78 8.03Q89.32 8.43 89.12 9.21L89.12 9.21ZM97.26 13.65L97.26 13.65Q96.45 13.65 95.84 13.46L95.84 13.46L95.84 13.46Q95.23 13.27 94.91 13.05L94.91 13.05L95.06 11.83L95.06 11.83Q95.34 12.08 95.92 12.31L95.92 12.31L95.92 12.31Q96.50 12.53 97.20 12.53L97.20 12.53L97.20 12.53Q97.86 12.53 98.22 12.31L98.22 12.31L98.22 12.31Q98.57 12.08 98.57 11.68L98.57 11.68L98.57 11.68Q98.57 11.20 98.18 10.96L98.18 10.96L98.18 10.96Q97.79 10.71 97.20 10.54L97.20 10.54L97.20 10.54Q96.56 10.37 96.12 10.18L96.12 10.18L96.12 10.18Q95.68 10.00 95.36 9.60L95.36 9.60L95.36 9.60Q95.05 9.21 95.05 8.57L95.05 8.57L95.05 8.57Q95.05 7.69 95.68 7.10L95.68 7.10L95.68 7.10Q96.31 6.51 97.62 6.51L97.62 6.51L97.62 6.51Q98.22 6.51 98.64 6.63L98.64 6.63L98.64 6.63Q99.06 6.75 99.48 6.96L99.48 6.96L99.33 8.11L99.33 8.11Q98.99 7.83 98.59 7.67L98.59 7.67L98.59 7.67Q98.18 7.50 97.65 7.50L97.65 7.50L97.65 7.50Q97.03 7.50 96.68 7.73L96.68 7.73L96.68 7.73Q96.32 7.97 96.32 8.43L96.32 8.43L96.32 8.43Q96.32 8.74 96.49 8.93L96.49 8.93L96.49 8.93Q96.66 9.11 96.96 9.24L96.96 9.24L96.96 9.24Q97.27 9.37 97.92 9.56L97.92 9.56L97.92 9.56Q98.71 9.80 99.30 10.23L99.30 10.23L99.30 10.23Q99.88 10.67 99.88 11.61L99.88 11.61L99.88 11.61Q99.88 12.45 99.28 13.05L99.28 13.05L99.28 13.05Q98.69 13.65 97.26 13.65L97.26 13.65ZM103.05 13.65L103.05 13.65Q102.24 13.65 101.63 13.46L101.63 13.46L101.63 13.46Q101.02 13.27 100.70 13.05L100.70 13.05L100.86 11.83L100.86 11.83Q101.14 12.08 101.72 12.31L101.72 12.31L101.72 12.31Q102.30 12.53 103.00 12.53L103.00 12.53L103.00 12.53Q103.66 12.53 104.01 12.31L104.01 12.31L104.01 12.31Q104.37 12.08 104.37 11.68L104.37 11.68L104.37 11.68Q104.37 11.20 103.98 10.96L103.98 10.96L103.98 10.96Q103.59 10.71 103.00 10.54L103.00 10.54L103.00 10.54Q102.35 10.37 101.91 10.18L101.91 10.18L101.91 10.18Q101.47 10.00 101.16 9.60L101.16 9.60L101.16 9.60Q100.84 9.21 100.84 8.57L100.84 8.57L100.84 8.57Q100.84 7.69 101.47 7.10L101.47 7.10L101.47 7.10Q102.10 6.51 103.42 6.51L103.42 6.51L103.42 6.51Q104.02 6.51 104.44 6.63L104.44 6.63L104.44 6.63Q104.86 6.75 105.28 6.96L105.28 6.96L105.13 8.11L105.13 8.11Q104.79 7.83 104.38 7.67L104.38 7.67L104.38 7.67Q103.98 7.50 103.45 7.50L103.45 7.50L103.45 7.50Q102.83 7.50 102.47 7.73L102.47 7.73L102.47 7.73Q102.12 7.97 102.12 8.43L102.12 8.43L102.12 8.43Q102.12 8.74 102.28 8.93L102.28 8.93L102.28 8.93Q102.45 9.11 102.76 9.24L102.76 9.24L102.76 9.24Q103.07 9.37 103.71 9.56L103.71 9.56L103.71 9.56Q104.51 9.80 105.09 10.23L105.09 10.23L105.09 10.23Q105.67 10.67 105.67 11.61L105.67 11.61L105.67 11.61Q105.67 12.45 105.08 13.05L105.08 13.05L105.08 13.05Q104.48 13.65 103.05 13.65L103.05 13.65ZM110.32 13.51L110.32 3.71L113.50 3.71L113.50 3.71Q115.09 3.71 115.99 4.45L115.99 4.45L115.99 4.45Q116.89 5.18 116.89 6.69L116.89 6.69L116.89 6.69Q116.89 8.65 115.18 9.45L115.18 9.45L117.38 13.51L115.75 13.51L113.76 9.69L113.69 9.69L111.72 9.69L111.72 13.51L110.32 13.51ZM111.72 8.50L113.48 8.50L113.48 8.50Q114.46 8.50 114.98 8.02L114.98 8.02L114.98 8.02Q115.50 7.55 115.50 6.69L115.50 6.69L115.50 6.69Q115.50 5.84 114.99 5.37L114.99 5.37L114.99 5.37Q114.48 4.90 113.48 4.90L113.48 4.90L111.72 4.90L111.72 8.50ZM121.79 13.65L121.79 13.65Q120.61 13.65 119.78 13.17L119.78 13.17L119.78 13.17Q118.94 12.68 118.51 11.86L118.51 11.86L118.51 11.86Q118.08 11.03 118.08 10.02L118.08 10.02L118.08 10.02Q118.08 9.06 118.48 8.25L118.48 8.25L118.48 8.25Q118.87 7.45 119.64 6.98L119.64 6.98L119.64 6.98Q120.40 6.51 121.44 6.51L121.44 6.51L121.44 6.51Q122.75 6.51 123.57 7.28L123.57 7.28L123.57 7.28Q124.39 8.05 124.39 9.41L124.39 9.41L124.39 9.41Q124.39 9.76 124.33 10.08L124.33 10.08L119.36 10.08L119.36 10.08Q119.49 11.41 120.18 11.97L120.18 11.97L120.18 11.97Q120.86 12.53 121.94 12.53L121.94 12.53L121.94 12.53Q123.02 12.53 123.91 12.12L123.91 12.12L124.08 13.12L124.08 13.12Q122.89 13.65 121.79 13.65L121.79 13.65ZM119.48 9.21L123.09 9.21L123.09 9.21Q123.09 8.47 122.67 8.05L122.67 8.05L122.67 8.05Q122.25 7.63 121.41 7.63L121.41 7.63L121.41 7.63Q120.60 7.63 120.13 8.03L120.13 8.03L120.13 8.03Q119.67 8.43 119.48 9.21L119.48 9.21ZM127.61 13.65L127.61 13.65Q126.80 13.65 126.19 13.46L126.19 13.46L126.19 13.46Q125.58 13.27 125.26 13.05L125.26 13.05L125.41 11.83L125.41 11.83Q125.69 12.08 126.27 12.31L126.27 12.31L126.27 12.31Q126.85 12.53 127.55 12.53L127.55 12.53L127.55 12.53Q128.21 12.53 128.57 12.31L128.57 12.31L128.57 12.31Q128.93 12.08 128.93 11.68L128.93 11.68L128.93 11.68Q128.93 11.20 128.53 10.96L128.53 10.96L128.53 10.96Q128.14 10.71 127.55 10.54L127.55 10.54L127.55 10.54Q126.91 10.37 126.47 10.18L126.47 10.18L126.47 10.18Q126.03 10.00 125.71 9.60L125.71 9.60L125.71 9.60Q125.40 9.21 125.40 8.57L125.40 8.57L125.40 8.57Q125.40 7.69 126.03 7.10L126.03 7.10L126.03 7.10Q126.66 6.51 127.97 6.51L127.97 6.51L127.97 6.51Q128.58 6.51 129.00 6.63L129.00 6.63L129.00 6.63Q129.42 6.75 129.84 6.96L129.84 6.96L129.68 8.11L129.68 8.11Q129.35 7.83 128.94 7.67L128.94 7.67L128.94 7.67Q128.53 7.50 128.00 7.50L128.00 7.50L128.00 7.50Q127.39 7.50 127.03 7.73L127.03 7.73L127.03 7.73Q126.67 7.97 126.67 8.43L126.67 8.43L126.67 8.43Q126.67 8.74 126.84 8.93L126.84 8.93L126.84 8.93Q127.01 9.11 127.32 9.24L127.32 9.24L127.32 9.24Q127.62 9.37 128.27 9.56L128.27 9.56L128.27 9.56Q129.07 9.80 129.65 10.23L129.65 10.23L129.65 10.23Q130.23 10.67 130.23 11.61L130.23 11.61L130.23 11.61Q130.23 12.45 129.63 13.05L129.63 13.05L129.63 13.05Q129.04 13.65 127.61 13.65L127.61 13.65ZM134.46 13.65L134.46 13.65Q133.41 13.65 132.64 13.18L132.64 13.18L132.64 13.18Q131.87 12.71 131.46 11.90L131.46 11.90L131.46 11.90Q131.05 11.09 131.05 10.08L131.05 10.08L131.05 10.08Q131.05 9.07 131.46 8.26L131.46 8.26L131.46 8.26Q131.87 7.45 132.64 6.98L132.64 6.98L132.64 6.98Q133.41 6.51 134.46 6.51L134.46 6.51L134.46 6.51Q135.49 6.51 136.27 6.98L136.27 6.98L136.27 6.98Q137.05 7.45 137.45 8.26L137.45 8.26L137.45 8.26Q137.86 9.07 137.86 10.08L137.86 10.08L137.86 10.08Q137.86 11.09 137.45 11.90L137.45 11.90L137.45 11.90Q137.05 12.71 136.27 13.18L136.27 13.18L136.27 13.18Q135.49 13.65 134.46 13.65L134.46 13.65ZM134.46 12.53L134.46 12.53Q135.46 12.53 136.02 11.89L136.02 11.89L136.02 11.89Q136.57 11.24 136.57 10.08L136.57 10.08L136.57 10.08Q136.57 8.92 136.02 8.27L136.02 8.27L136.02 8.27Q135.46 7.63 134.46 7.63L134.46 7.63L134.46 7.63Q133.45 7.63 132.90 8.27L132.90 8.27L132.90 8.27Q132.34 8.92 132.34 10.08L132.34 10.08L132.34 10.08Q132.34 11.24 132.90 11.89L132.90 11.89L132.90 11.89Q133.45 12.53 134.46 12.53L134.46 12.53ZM143.53 6.65L144.79 6.65L144.79 13.51L143.67 13.51L143.53 12.75L143.53 12.75Q143.19 13.22 142.74 13.43L142.74 13.43L142.74 13.43Q142.28 13.65 141.62 13.65L141.62 13.65L141.62 13.65Q140.39 13.65 139.74 12.90L139.74 12.90L139.74 12.90Q139.09 12.15 139.09 10.64L139.09 10.64L139.09 6.65L140.35 6.65L140.35 10.29L140.35 10.29Q140.35 11.41 140.74 11.97L140.74 11.97L140.74 11.97Q141.12 12.53 141.95 12.53L141.95 12.53L141.95 12.53Q142.44 12.53 142.86 12.33L142.86 12.33L142.86 12.33Q143.29 12.14 143.53 11.76L143.53 11.76L143.53 6.65ZM146.50 13.51L146.50 6.65L147.53 6.65L147.69 7.78L147.69 7.78Q148.22 7.13 148.70 6.82L148.70 6.82L148.70 6.82Q149.18 6.51 149.72 6.51L149.72 6.51L149.72 6.51Q149.88 6.51 150.04 6.55L150.04 6.55L149.91 7.94L149.91 7.94Q149.73 7.90 149.49 7.90L149.49 7.90L149.49 7.90Q148.97 7.90 148.51 8.13L148.51 8.13L148.51 8.13Q148.05 8.36 147.84 8.67L147.84 8.67L147.84 13.51L146.50 13.51ZM154.07 13.65L154.07 13.65Q152.95 13.65 152.15 13.19L152.15 13.19L152.15 13.19Q151.34 12.73 150.93 11.92L150.93 11.92L150.93 11.92Q150.53 11.12 150.53 10.12L150.53 10.12L150.53 10.12Q150.53 8.50 151.45 7.50L151.45 7.50L151.45 7.50Q152.36 6.51 154.17 6.51L154.17 6.51L154.17 6.51Q155.23 6.51 156.04 6.92L156.04 6.92L155.85 8.02L155.85 8.02Q154.99 7.63 154.14 7.63L154.14 7.63L154.14 7.63Q153.02 7.63 152.42 8.27L152.42 8.27L152.42 8.27Q151.82 8.90 151.82 10.07L151.82 10.07L151.82 10.07Q151.82 11.23 152.40 11.89L152.40 11.89L152.40 11.89Q152.98 12.54 154.11 12.54L154.11 12.54L154.11 12.54Q155.02 12.54 155.86 12.12L155.86 12.12L156.03 13.13L156.03 13.13Q155.72 13.34 155.18 13.50L155.18 13.50L155.18 13.50Q154.64 13.65 154.07 13.65L154.07 13.65ZM160.57 13.65L160.57 13.65Q159.39 13.65 158.56 13.17L158.56 13.17L158.56 13.17Q157.72 12.68 157.29 11.86L157.29 11.86L157.29 11.86Q156.86 11.03 156.86 10.02L156.86 10.02L156.86 10.02Q156.86 9.06 157.26 8.25L157.26 8.25L157.26 8.25Q157.65 7.45 158.42 6.98L158.42 6.98L158.42 6.98Q159.18 6.51 160.22 6.51L160.22 6.51L160.22 6.51Q161.53 6.51 162.35 7.28L162.35 7.28L162.35 7.28Q163.17 8.05 163.17 9.41L163.17 9.41L163.17 9.41Q163.17 9.76 163.11 10.08L163.11 10.08L158.14 10.08L158.14 10.08Q158.27 11.41 158.96 11.97L158.96 11.97L158.96 11.97Q159.64 12.53 160.72 12.53L160.72 12.53L160.72 12.53Q161.80 12.53 162.69 12.12L162.69 12.12L162.86 13.12L162.86 13.12Q161.67 13.65 160.57 13.65L160.57 13.65ZM158.26 9.21L161.87 9.21L161.87 9.21Q161.87 8.47 161.45 8.05L161.45 8.05L161.45 8.05Q161.03 7.63 160.19 7.63L160.19 7.63L160.19 7.63Q159.38 7.63 158.91 8.03L158.91 8.03L158.91 8.03Q158.45 8.43 158.26 9.21L158.26 9.21ZM166.39 13.65L166.39 13.65Q165.58 13.65 164.97 13.46L164.97 13.46L164.97 13.46Q164.36 13.27 164.04 13.05L164.04 13.05L164.19 11.83L164.19 11.83Q164.47 12.08 165.05 12.31L165.05 12.31L165.05 12.31Q165.63 12.53 166.33 12.53L166.33 12.53L166.33 12.53Q166.99 12.53 167.35 12.31L167.35 12.31L167.35 12.31Q167.71 12.08 167.71 11.68L167.71 11.68L167.71 11.68Q167.71 11.20 167.31 10.96L167.31 10.96L167.31 10.96Q166.92 10.71 166.33 10.54L166.33 10.54L166.33 10.54Q165.69 10.37 165.25 10.18L165.25 10.18L165.25 10.18Q164.81 10.00 164.49 9.60L164.49 9.60L164.49 9.60Q164.18 9.21 164.18 8.57L164.18 8.57L164.18 8.57Q164.18 7.69 164.81 7.10L164.81 7.10L164.81 7.10Q165.44 6.51 166.75 6.51L166.75 6.51L166.75 6.51Q167.36 6.51 167.78 6.63L167.78 6.63L167.78 6.63Q168.20 6.75 168.62 6.96L168.62 6.96L168.46 8.11L168.46 8.11Q168.13 7.83 167.72 7.67L167.72 7.67L167.72 7.67Q167.31 7.50 166.78 7.50L166.78 7.50L166.78 7.50Q166.17 7.50 165.81 7.73L165.81 7.73L165.81 7.73Q165.45 7.97 165.45 8.43L165.45 8.43L165.45 8.43Q165.45 8.74 165.62 8.93L165.62 8.93L165.62 8.93Q165.79 9.11 166.10 9.24L166.10 9.24L166.10 9.24Q166.40 9.37 167.05 9.56L167.05 9.56L167.05 9.56Q167.85 9.80 168.43 10.23L168.43 10.23L168.43 10.23Q169.01 10.67 169.01 11.61L169.01 11.61L169.01 11.61Q169.01 12.45 168.41 13.05L168.41 13.05L168.41 13.05Q167.82 13.65 166.39 13.65L166.39 13.65Z"></path></g><!----><!----></svg>